<svg xmlns="http://www.w3.org/2000/svg" xmlns:xlink="http://www.w3.org/1999/xlink" version="1.1" id="Layer_1" x="0px" y="0px" width="100px" height="100px" viewBox="0 0 100 100" enable-background="new 0 0 100 100" xml:space="preserve">
<path fill="#000000" d="M71.865,8.019c0-1.766-1.435-3.203-3.21-3.203c-1.763,0-3.202,1.438-3.202,3.203v12.621  c0,1.772,1.439,3.207,3.202,3.207c1.775,0,3.21-1.434,3.21-3.207V8.019z"/>
<path fill="#000000" d="M78.833,15.269h-4.345v5.371c0,3.215-2.611,5.83-5.833,5.83c-3.209,0-5.823-2.615-5.823-5.83v-5.371H36.293  v5.371c0,3.215-2.61,5.83-5.823,5.83s-5.829-2.615-5.829-5.83v-5.371h-4.354c-4.943,0-8.95,4.004-8.953,8.95v58.764  c0.003,4.941,4.004,8.947,8.953,8.95h58.546c4.942-0.003,8.945-4.009,8.951-8.95V24.218C87.778,19.272,83.775,15.271,78.833,15.269z   M80.373,82.982c0,0.845-0.696,1.542-1.54,1.542H20.287c-0.851,0-1.542-0.697-1.545-1.542V35.968h61.631V82.982z"/>
<path fill="#000000" d="M33.674,8.019c0-1.766-1.438-3.203-3.204-3.203c-1.775,0-3.206,1.438-3.206,3.203v12.621  c0,1.772,1.431,3.207,3.206,3.207c1.766,0,3.204-1.434,3.204-3.207V8.019z"/>
<g>
	<g>
		<rect x="65.945" y="41.515" fill="#000000" width="6.759" height="7.014"/>
	</g>
	<g>
		<rect x="56.064" y="41.515" fill="#000000" width="6.756" height="7.014"/>
	</g>
	<g>
		<rect x="46.177" y="41.515" fill="#000000" width="6.751" height="7.014"/>
	</g>
	<g>
		<rect x="65.945" y="51.294" fill="#000000" width="6.759" height="7.014"/>
	</g>
	<g>
		<rect x="56.064" y="51.294" fill="#000000" width="6.756" height="7.014"/>
	</g>
	<g>
		<rect x="46.177" y="51.294" fill="#000000" width="6.751" height="7.014"/>
	</g>
	<g>
		<rect x="36.291" y="51.294" fill="#000000" width="6.756" height="7.014"/>
	</g>
	<g>
		<rect x="26.407" y="51.294" fill="#000000" width="6.76" height="7.014"/>
	</g>
	<g>
		<rect x="65.945" y="61.073" fill="#000000" width="6.759" height="7.011"/>
	</g>
	<g>
		<rect x="56.064" y="61.073" fill="#000000" width="6.756" height="7.011"/>
	</g>
	<g>
		<rect x="46.177" y="61.073" fill="#000000" width="6.751" height="7.011"/>
	</g>
	<g>
		<rect x="36.291" y="61.073" fill="#000000" width="6.756" height="7.011"/>
	</g>
	<g>
		<rect x="26.407" y="61.073" fill="#000000" width="6.76" height="7.011"/>
	</g>
	<g>
		<rect x="56.064" y="70.852" fill="#000000" width="6.756" height="7.011"/>
	</g>
	<g>
		<rect x="46.177" y="70.852" fill="#000000" width="6.751" height="7.011"/>
	</g>
	<g>
		<rect x="36.291" y="70.852" fill="#000000" width="6.756" height="7.011"/>
	</g>
	<g>
		<rect x="26.407" y="70.852" fill="#000000" width="6.76" height="7.011"/>
	</g>
</g>
</svg>