<svg xmlns="http://www.w3.org/2000/svg" xmlns:xlink="http://www.w3.org/1999/xlink" version="1.1" x="0px" y="0px" width="100px" height="100px" viewBox="0 0 100 100" enable-background="new 0 0 100 100" xml:space="preserve">
<g id="Captions" display="none">
</g>
<g id="Your_Icon">
	<path fill="#000000" d="M99.917,48.455c-0.149-2.697-2.798-3.926-5.193-3.926c-0.174,0-0.337,0.008-0.487,0.022   c-0.141-0.032-0.586-0.16-1.946-0.669c-0.742-2.828-1.777-5.556-3.006-7.911c-3.112-5.969-7.172-9.258-11.43-9.258   c-0.617,0-1.24,0.07-1.855,0.21c-2.665-3.716-5.777-5.675-9.03-5.675c-1.399,0-2.786,0.37-4.132,1.098   c-2.561-3.596-5.56-5.49-8.702-5.49c-3.935,0-7.679,3.023-10.541,8.511c-0.144,0.275-0.289,0.567-0.447,0.9l-1.303,0.23   c-1.935-1.623-3.983-2.446-6.097-2.446c-0.793,0-1.591,0.121-2.378,0.36c-2.622-3.861-5.719-5.898-8.985-5.898   c-3.935,0-7.678,3.023-10.541,8.512c-0.764,1.464-1.441,3.073-2.018,4.789l-6.941,1.229c-0.49,0.024-2.976,0.211-4.164,1.529   c-0.462,0.512-0.682,1.146-0.637,1.832c0.222,3.323,2.069,4.398,3.396,4.739l9.07,19.063c0.027,0.207,0.114,0.479,0.349,0.759   c0.809,0.97,2.837,1.386,6.239,1.274l3.212,7.189l0.262,0.125c0.12,0.058,2.879,1.362,5.762,1.62l1.605,1.642l3.372,7.244   l0.134,0.112c0.053,0.044,1.304,1.079,3.344,1.66c2.25,0.869,4.605,1.31,7,1.31c7.04,0,12.116-3.729,12.329-3.889l0.252-0.187   l0.942-5.384c2.212-2.119,4.471-3.193,6.716-3.193c2.168,0,3.706,1.031,4.141,1.359l-0.303,0.563l0.446,0.415   c0.263,0.243,0.53,0.478,0.816,0.712c0.062,0.083,0.121,0.158,0.18,0.228l0.072,0.086l0.094,0.062   c0.19,0.127,0.388,0.24,0.585,0.337c2.459,1.752,5.16,2.64,8.031,2.64c0.001,0,0,0,0.001,0c6.692,0,11.969-4.771,12.189-4.974   l0.198-0.181l0.666-3.802c0.328-0.845,0.55-1.525,0.625-1.767c0.454-0.771,3.542-6.244,3.979-12.72   C97.01,52.896,100.07,51.224,99.917,48.455z M49.469,54.05l-0.138,0.033c-0.244,0.061-0.482,0.119-0.715,0.178   c-0.204,0.052-0.405,0.102-0.601,0.151l-0.26,0.065c-0.312,0.079-0.61,0.157-0.896,0.231c-1.443,0.379-2.483,0.681-3.181,0.924   c-1.397,0.486-2.712,0.732-3.908,0.732c-3.248,0-4.601-1.786-4.653-1.857L35.04,54.4l-2.023-1.449   c0.612-3.943,1.868-7.87,3.556-11.106c0.161-0.308,0.33-0.618,0.502-0.92c0.206-0.361,0.426-0.724,0.653-1.078   c0.214-0.334,0.429-0.65,0.638-0.94c1.014-1.41,2.091-2.523,3.202-3.311c0.281-0.199,0.566-0.378,0.848-0.533   c0.273-0.15,0.551-0.28,0.826-0.388c0.415-0.163,0.833-0.275,1.243-0.337c0.246-0.036,0.486-0.055,0.714-0.055   c0.016,0.001,0.032,0.002,0.042,0.001c0.264,0.002,0.534,0.026,0.802,0.072c2.301,0.394,4.697,2.402,6.748,5.658   c0.199,0.315,0.395,0.642,0.58,0.97c0.162,0.286,0.319,0.575,0.469,0.861c0.02,0.039,0.04,0.079,0.06,0.118   c0.02,0.041,0.039,0.081,0.059,0.12c1.523,2.985,2.69,6.562,3.32,10.145c-0.813,0.183-1.609,0.363-2.382,0.541l-1.543,0.355   C51.923,53.457,50.616,53.768,49.469,54.05z M56.177,29.763l-0.012,0.021c-0.063,0.118-0.126,0.235-0.189,0.354   c-0.909,1.745-1.689,3.646-2.33,5.67c-2.404-2.891-5.116-4.489-7.925-4.663c-0.241-0.391-0.487-0.768-0.737-1.127   c0.403-1.065,0.851-2.083,1.335-3.029c2.27-4.436,5.119-6.979,7.816-6.979c2.052,0,4.218,1.488,6.148,4.206   C58.788,25.617,57.409,27.478,56.177,29.763z M81.15,47.101l-1.587,0.331c-5.158,1.075-9.915,2.084-14.138,2.999l-0.009,0.002   c0.03-0.296,0.062-0.584,0.099-0.872c0.286-2.254,0.787-4.521,1.489-6.735c0.233-0.734,0.489-1.463,0.764-2.168   c0.215-0.555,0.438-1.09,0.664-1.592c0.268-0.599,0.525-1.134,0.788-1.636c0.283-0.545,0.588-1.082,0.903-1.596   c1.596-2.601,3.411-4.45,5.252-5.35c0.218-0.106,0.442-0.202,0.666-0.283c0.229-0.083,0.461-0.152,0.688-0.203   c0.382-0.087,0.761-0.132,1.125-0.132c2.98,0,6.127,2.756,8.633,7.562c1.028,1.974,1.89,4.18,2.562,6.557   c0.132,0.468,0.257,0.94,0.37,1.411C87.383,45.813,84.487,46.408,81.15,47.101z M67.302,34.4c-0.216,0.358-0.437,0.748-0.657,1.157   c-0.074,0.137-0.147,0.273-0.221,0.414c-0.126,0.24-0.256,0.501-0.402,0.799c-0.221,0.454-0.437,0.926-0.643,1.4   c-1.737,4.008-2.863,8.589-3.189,12.967c-0.617,0.136-1.228,0.27-1.832,0.404c-0.711-3.958-2.02-7.89-3.722-11.154   c-0.208-0.399-0.427-0.797-0.651-1.187c0.714-2.925,1.767-5.708,3.053-8.065c1.113-2.04,2.341-3.664,3.647-4.824   c0.191-0.169,0.387-0.331,0.582-0.481c0.199-0.152,0.4-0.293,0.596-0.419c1.04-0.668,2.085-1.008,3.106-1.008   c1.436,0,3.607,0.679,6.02,3.785C70.911,29.475,69.002,31.56,67.302,34.4z M41.699,30.904c0.181,0.229,0.367,0.478,0.554,0.74   c0.004,0.006,0.007,0.011,0.012,0.017c-0.001,0.001-0.003,0.001-0.004,0.002c-0.339,0.124-0.676,0.268-1.001,0.429   c-1.588,0.787-3.107,2.047-4.516,3.746c-0.225,0.271-0.447,0.555-0.664,0.844c-0.224,0.3-0.448,0.617-0.668,0.941   c-0.573,0.853-1.124,1.782-1.636,2.765c-1.61,3.085-2.872,6.782-3.605,10.526l-6.209-4.448c0.734-6.426,3.388-13.026,6.672-16.54   c0.718-0.769,1.46-1.385,2.204-1.834c0.211-0.127,0.425-0.242,0.634-0.341c0.221-0.105,0.441-0.194,0.652-0.267   c0.543-0.184,1.09-0.277,1.623-0.277c1.096,0,2.215,0.388,3.327,1.153C39.97,28.977,40.853,29.833,41.699,30.904z M26.999,29.344   c-0.796,1.06-1.551,2.27-2.244,3.599c-1.755,3.366-3.049,7.386-3.694,11.444l-7.692-5.511c0.318-2.156,0.862-4.365,1.582-6.42   c2.292-6.553,5.996-10.787,9.434-10.787c2.043,0,4.198,1.474,6.123,4.17C29.273,26.707,28.097,27.883,26.999,29.344z"/>
</g>
</svg>