<?xml version="1.0" encoding="utf-8"?>
<!-- Generator: Adobe Illustrator 16.0.0, SVG Export Plug-In . SVG Version: 6.00 Build 0)  -->
<!DOCTYPE svg PUBLIC "-//W3C//DTD SVG 1.1//EN" "http://www.w3.org/Graphics/SVG/1.1/DTD/svg11.dtd">
<svg version="1.1" id="Layer_1" xmlns="http://www.w3.org/2000/svg" xmlns:xlink="http://www.w3.org/1999/xlink" x="0px" y="0px"
	 width="71.778px" height="100.001px" viewBox="0 0 71.778 100.001" enable-background="new 0 0 71.778 100.001"
	 xml:space="preserve">
<g>
	<g>
		<path fill="#010101" d="M34.172,36.869c0,0-3.611-0.438-1.631-6.211c1.484-4.33,9.804-12.082,9.953-19.149
			C42.691,2.511,35.775,0,35.775,0s3.298,2.887,2.556,9.909c-0.716,6.744-7.921,8.688-9.498,17.016
			C27.093,36.12,34.172,36.869,34.172,36.869z M70.307,55.49c-1.518-1.924-5.342-2.075-7.029-0.636
			c-1.568,1.346-2.026,4.828-2.417,4.386c-2.204-2.491-4.402-5.206-5.974-8.615c-2.124-4.615,7.171,2.548,6.932-6.918
			c0-0.031-26.15,0.001-26.15,0.001S7.725,43.729,7.722,43.755c-1.122,9.457,10.045,2.128,8.388,7.032
			C15,54.07,13.046,56.755,10.955,59.24c-0.41,0.484-0.026-2.191-1.318-3.782c-1.231-1.523-5.615-2.737-8.157,0.399
			c-2.858,3.531-1.044,7.333,0.966,8.397c1.648,0.868,3.896,0.479,3.574,0.892c-2.185,2.801-3.587,5.347-3.587,9.068
			c0,13.896,4.868,15.562,16.401,20.687c0.638,0.281,1.262,2.566,0.505,2.55c-1.47-0.025-2.18,2.511-1.21,2.523
			c2.824,0.032,17.218,0.023,17.218,0.023s15.815,0.016,15.835-0.029c0.497-2.117-1.704-1.724-1.808-2.659
			c-0.148-1.337,0.413-2.208,1.046-2.46c12.373-4.883,18.802-6.331,18.802-20.635c0-3.605-1.358-6.429-3.298-9.065
			c-0.358-0.487,2.853-0.529,4.428-1.769C72.098,62.009,72.417,58.182,70.307,55.49z M20.23,36.869c0,0-3.611-0.438-1.631-6.211
			c1.484-4.33,9.803-12.082,9.955-19.149C28.749,2.511,21.833,0,21.833,0s3.3,2.887,2.554,9.909
			c-0.715,6.744-7.92,8.688-9.496,17.016C13.151,36.12,20.23,36.869,20.23,36.869z M48.116,36.869c0,0-3.614-0.438-1.633-6.211
			c1.484-4.33,9.805-12.082,9.953-19.149C56.632,2.511,49.716,0,49.716,0s3.299,2.887,2.557,9.909
			c-0.717,6.744-7.92,8.688-9.498,17.016C41.036,36.12,48.116,36.869,48.116,36.869z"/>
	</g>
</g>
</svg>
